/* XPM */
static const char * DivFixpp_xpm[]={
"32 32 181 2",
"  	c None",
". 	c #373737",
"+ 	c #161616",
"@ 	c #0F0F0F",
"# 	c #202020",
"$ 	c #AEAEAE",
"% 	c #E4E4E4",
"& 	c #F0F0F0",
"* 	c #919191",
"= 	c #313131",
"- 	c #222222",
"; 	c #B3B3B3",
"> 	c #5C5C5C",
", 	c #171717",
"' 	c #383838",
") 	c #A4A4A4",
"! 	c #F5F5F5",
"~ 	c #FFFFFF",
"{ 	c #EFEFEF",
"] 	c #9A9A9A",
"^ 	c #494949",
"/ 	c #1B1B1B",
"( 	c #474747",
"_ 	c #C5C5C5",
": 	c #FCFCFC",
"< 	c #FEFEFE",
"[ 	c #D3D3D3",
"} 	c #6A6A6A",
"| 	c #464646",
"1 	c #A7A7A7",
"2 	c #D7D7D7",
"3 	c #2F2F2F",
"4 	c #A5A5A5",
"5 	c #E0E0E0",
"6 	c #F4F4F4",
"7 	c #A1A1A1",
"8 	c #3E3E3E",
"9 	c #282828",
"0 	c #646464",
"a 	c #C8C8C8",
"b 	c #EAEAEA",
"c 	c #888888",
"d 	c #A6A6A6",
"e 	c #606060",
"f 	c #1F1F1F",
"g 	c #8D8D8D",
"h 	c #EBEBEB",
"i 	c #F6F6F6",
"j 	c #ABABAB",
"k 	c #4E4E4E",
"l 	c #515151",
"m 	c #939393",
"n 	c #292929",
"o 	c #434343",
"p 	c #C6C6C6",
"q 	c #FDFDFD",
"r 	c #D2D2D2",
"s 	c #707070",
"t 	c #353535",
"u 	c #444444",
"v 	c #989898",
"w 	c #C0C0C0",
"x 	c #7C7C7C",
"y 	c #1D1D1D",
"z 	c #262626",
"A 	c #2E2E2E",
"B 	c #656565",
"C 	c #FAFAFA",
"D 	c #ECECEC",
"E 	c #666666",
"F 	c #CBCBCB",
"G 	c #6C6C6C",
"H 	c #2D2D2D",
"I 	c #3A3A3A",
"J 	c #404040",
"K 	c #4B4B4B",
"L 	c #7E7E7E",
"M 	c #959595",
"N 	c #7D7D7D",
"O 	c #424242",
"P 	c #4C4C4C",
"Q 	c #C1C1C1",
"R 	c #8E8E8E",
"S 	c #8A8A8A",
"T 	c #757575",
"U 	c #242424",
"V 	c #2B2B2B",
"W 	c #595959",
"X 	c #A3A3A3",
"Y 	c #505050",
"Z 	c #767676",
"` 	c #818181",
" .	c #3D3D3D",
"..	c #3F3F3F",
"+.	c #848484",
"@.	c #616161",
"#.	c #323232",
"$.	c #ACACAC",
"%.	c #8F8F8F",
"&.	c #141414",
"*.	c #191919",
"=.	c #484848",
"-.	c #E9E9E9",
";.	c #949494",
">.	c #F7F7F7",
",.	c #6D6D6D",
"'.	c #AFAFAF",
").	c #363636",
"!.	c #DDDDDD",
"~.	c #9C9C9C",
"{.	c #101010",
"].	c #4A4A4A",
"^.	c #909090",
"/.	c #303030",
"(.	c #8C8C8C",
"_.	c #BBBBBB",
":.	c #D4D4D4",
"<.	c #E2E2E2",
"[.	c #979797",
"}.	c #0A0A0A",
"|.	c #0C0C0C",
"1.	c #111111",
"2.	c #333333",
"3.	c #C4C4C4",
"4.	c #D9D9D9",
"5.	c #747474",
"6.	c #DEDEDE",
"7.	c #DCDCDC",
"8.	c #717171",
"9.	c #BFBFBF",
"0.	c #D5D5D5",
"a.	c #393939",
"b.	c #E1E1E1",
"c.	c #070707",
"d.	c #3C3C3C",
"e.	c #1A1A1A",
"f.	c #454545",
"g.	c #232323",
"h.	c #131313",
"i.	c #0E0E0E",
"j.	c #6E6E6E",
"k.	c #969696",
"l.	c #1E1E1E",
"m.	c #272727",
"n.	c #A9A9A9",
"o.	c #545454",
"p.	c #181818",
"q.	c #A0A0A0",
"r.	c #5D5D5D",
"s.	c #585858",
"t.	c #565656",
"u.	c #929292",
"v.	c #676767",
"w.	c #9D9D9D",
"x.	c #151515",
"y.	c #3B3B3B",
"z.	c #CECECE",
"A.	c #BCBCBC",
"B.	c #9B9B9B",
"C.	c #A2A2A2",
"D.	c #5A5A5A",
"E.	c #414141",
"F.	c #2C2C2C",
"G.	c #5B5B5B",
"H.	c #4D4D4D",
"I.	c #4F4F4F",
"J.	c #252525",
"K.	c #343434",
"L.	c #212121",
"M.	c #5E5E5E",
"N.	c #9E9E9E",
"O.	c #5F5F5F",
"P.	c #535353",
"Q.	c #525252",
"R.	c #2A2A2A",
"S.	c #6B6B6B",
"T.	c #A8A8A8",
"U.	c #555555",
"V.	c #797979",
"W.	c #D6D6D6",
"X.	c #868686",
"                                                                ",
"                                                . + @ #         ",
"                                          . $ % & * = -         ",
"                                    * ; > , ' ) ! ~ { ]         ",
"                              ^ / ( _ : < [ } = | 1 2           ",
"                        3 4 5 6 7 8 9 0 a < b )                 ",
"                  c d e f 3 g h ~ i j k l m                     ",
"            n f o p q ~ r s t u v [ w                           ",
"        x / y - z A B a C D j E                                 ",
"        F G H = t I J K                                         ",
"        L M N O P                                               ",
"        Q R S T U 9 V W ) X Y I Z S `  ...` +.@.#.l N L         ",
"        $.%.S # &.*.=.-.q ;.#.S : >.,.= '.~ 2 #.).!.< ~.        ",
"        7 g f {.+ ].h : ^./.(.~ >.G I _.~ :.t ..<.< [.}.        ",
"        _ 9 |.1.2.3.4.S H 5.6.7.8.8 9.q 0.a.O b.q [.{.c.        ",
"        d.1.+ e.f U 9 A #.'  .O f.O  .' 2.A V 9 g.*.h.i.        ",
"        j.k.0 l.} m.V /.' n.$.%.o.O 8 a.t /.V z - y p.h.        ",
"        q./ Z E L r.Y N o ; s.x t.u.,.v.t u * 9 g.f w.x.        ",
"        q., ' c X 8 g v y.z.m u.> v.A.d.8.j z.k.8 B.:.k.        ",
"        j Z d O ) V C.G y.d d.* D.;.d D.a.^ k.3 m.9 C.l.        ",
"        ).E.F.g.8 V ..).).P I K O o.E.].t I r.V m.g.G.p.        ",
"        / = d...O u ( ^ K H.k I.Y ].o H.K ^ ( u O ..y./.        ",
"        l.y.# J.9 V A = K.).. ' a.k ].' K.= A V 9 U f I         ",
"        L. .L.J.9 V A /.2.K.).. . H.].).2.= A V 9 U # d.        ",
"        g.J g.J.9 r.M./.I.N.t t ).H.].y.. t 2.= A n 9 J         ",
"        m.O z z l v * ..O.A.K.t t H.8 o.P.Q.l I.H.P P '         ",
"        R.f.n n S.X x /.= T.2.K.K.P J K.= 3 H V 9 9 9 '         ",
"        F.( V V U.5.t 3 V.W.X.2.2.P ..2.= 3 H V V V V I         ",
"        3 ^ A A A A A 3 /.= #.2.2.P ..2./.3 A H H H H d.        ",
"        #.H.K.K.2.2.2.2.K.K.t t t H.' ..8 8  . . . . .a.        ",
"        y.^ P.P.P.P.P.P.P.P.P.P.P.^ a.a.a.a.a.a.a.a.a.a.        ",
"                                                                "};
