/* XPM */
static const char *wxbitbtn_path_xpm[]={
/* wxbitbtn_path */
"22 18 213 2",
"      c None",
" 0    c #CAAB7A",
" 1    c #BFBDB1",
" 2    c #BEBCB2",
" 3    c #BFBFB5",
" 4    c #C3B8A1",
" 5    c #C9AA73",
" 6    c #FEF7E8",
" 7    c #FDB749",
" 8    c #FCA722",
" 9    c #FDB84B",
" a    c #FDFAF5",
" b    c #FCEFD8",
" c    c #C1BBAB",
" d    c #FFF4E5",
" e    c #FEF4E2",
" f    c #FDF5E9",
" g    c #FDF6EB",
" h    c #FBF6EB",
" i    c #F9F2E7",
" j    c #F9EFDF",
" k    c #F9EEDB",
" l    c #FBECD5",
" m    c #FAEAD0",
" n    c #FAE7C6",
" o    c #FCE2B8",
" p    c #DDAD61",
" q    c #C2BBAA",
" r    c #FFF1DB",
" s    c #FEF4E8",
" t    c #FEF8EC",
" u    c #FEFAF2",
" v    c #FEF9F0",
" w    c #FEF7EA",
" x    c #FFF3E1",
" y    c #FFF2D9",
" z    c #FFEFD3",
" A    c #FFEDCF",
" B    c #FFE9C7",
" C    c #FFE7BD",
" D    c #FFE5B7",
" E    c #FFE1B1",
" F    c #C2B7A2",
" G    c #FFF1D7",
" H    c #FFE8C5",
" I    c #FDEBCF",
" J    c #FEEED4",
" K    c #FEEDD6",
" L    c #FEF8EE",
" M    c #FEEDD2",
" N    c #FDEDD7",
" O    c #EEB966",
" P    c #EAB25A",
" Q    c #E9B159",
" R    c #E8AF56",
" S    c #E7AE55",
" T    c #E7AD53",
" U    c #E4AB50",
" V    c #E6AB4E",
" W    c #AD7D31",
" X    c #C2B9A0",
" Y    c #FDD391",
" Z    c #F1C98B",
" &    c #F1CE97",
"0     c #F1C991",
"00    c #F1CA93",
"01    c #F1CE9D",
"02    c #F1C98F",
"03    c #F4C882",
"04    c #F6B856",
"05    c #F8C16A",
"06    c #FECA78",
"07    c #FEC872",
"08    c #FDC46B",
"09    c #FDC265",
"0a    c #FCBF60",
"0b    c #FCBC56",
"0c    c #FAB850",
"0d    c #FBAC2F",
"0e    c #C98519",
"0f    c #C3B89D",
"0g    c #F8C26C",
"0h    c #F9C273",
"0i    c #F9C375",
"0j    c #F8C47A",
"0k    c #F9C479",
"0l    c #FDCA79",
"0m    c #FEC56C",
"0n    c #FEBF64",
"0o    c #FEC264",
"0p    c #FCBF5E",
"0q    c #FCB950",
"0r    c #FBB547",
"0s    c #FBAE3F",
"0t    c #F9A521",
"0u    c #CC810C",
"0v    c #C3B69B",
"0w    c #F0A52E",
"0x    c #FBB84F",
"0y    c #FDBD59",
"0z    c #FDC163",
"0A    c #FEC366",
"0B    c #FEBB5C",
"0C    c #FCBD5A",
"0D    c #FCBB54",
"0E    c #FAB446",
"0F    c #FAB03C",
"0G    c #F9A41D",
"0H    c #CD8007",
"0I    c #C2B396",
"0J    c #EC9C1E",
"0K    c #F9B13F",
"0L    c #FCB84E",
"0M    c #FBB951",
"0N    c #FDBC57",
"0O    c #FCBE5C",
"0P    c #FDBC5F",
"0Q    c #FCBC58",
"0R    c #FCB550",
"0S    c #FBB74B",
"0T    c #FAB240",
"0U    c #F8AF3C",
"0V    c #F9A31B",
"0W    c #CA7C00",
"0X    c #C2B18E",
"0Y    c #F59A0B",
"0Z    c #F6AC36",
"0&    c #F9AF3B",
"1     c #FAB344",
"10    c #FCB84C",
"11    c #FDBB53",
"12    c #FCBA52",
"13    c #FAB952",
"14    c #FCB340",
"15    c #FBB13D",
"16    c #FBAD33",
"17    c #FAA92A",
"18    c #FBA723",
"19    c #FCA316",
"1a    c #FF9D11",
"1b    c #E88E00",
"1c    c #B26D00",
"1d    c #C3AE87",
"1e    c #F39705",
"1f    c #F8AA2E",
"1g    c #F6AC38",
"1h    c #F9AD35",
"1i    c #F8AD36",
"1j    c #F5A931",
"1k    c #FAA41C",
"1l    c #FDA213",
"1m    c #FEA212",
"1n    c #FFA10D",
"1o    c #FFA00B",
"1p    c #FFA20F",
"1q    c #FF9B0D",
"1r    c #FF9F09",
"1s    c #FF9F07",
"1t    c #DC8700",
"1u    c #AE6A00",
"1v    c #C3AB81",
"1w    c #F29400",
"1x    c #FF9D03",
"1y    c #F69600",
"1z    c #FC9A00",
"1A    c #FE9B00",
"1B    c #FDA315",
"1C    c #FFA311",
"1D    c #E28A00",
"1E    c #C4A97A",
"1F    c #DA8500",
"1G    c #E08900",
"1H    c #EA8F00",
"1I    c #EE9200",
"1J    c #FF9C01",
"1K    c #FF9E05",
"1L    c #FAA51E",
"1M    c #FAA31A",
"1N    c #FBA41B",
"1O    c #E68D00",
"1P    c #B66F00",
"1Q    c #C1A575",
"1R    c #D67E00",
"1S    c #F49500",
"1T    c #F8A626",
"1U    c #F7A627",
"1V    c #F8A726",
"1W    c #FAA622",
"1X    c #BA7200",
"1Y    c #C48D2E",
"1Z    c #F89800",
"1&    c #FBA319",
"2     c #F8A728",
"20    c #F8A52E",
"21    c #F7A92F",
"22    c #F5AB35",
"23    c #F8A82A",
"24    c #F9A41F",
"25    c #945B00",
"26    c #965800",
"27    c #965C00",
"28    c #985D00",
"29    c #9C5F00",
"2a    c #9E6100",
"2b    c #A06200",
"2c    c #A66200",
"2d    c #AA6800",
"2e    c #AC6900",
"2f    c #AD6B03",
"2g    c #AB6C09",
"2h    c #AA6D0C",
"2i    c #AB6B07",
"2j    c #AC6B04",
"   0 1 2 2 3 3 3 4                          ",
" 5 6 7 8 8 8 8 9 a b                        ",
" c d e f f f f g a a h i j k l m n o p      ",
" q r s t u a a a u v w x y z A B C D E      ",
" F G H I g J K L J M N O P Q R S T U V W    ",
" X B Y Z &0 000102030405060708090a0b0c0d0e  ",
"0f040c0g0h0h0i0j0j0k0l0m0n0o0p0b0q0r0s0t0u  ",
"0v0w0c0x0b0y0p0z09090A090z0B0C0D0x0E0F0G0H  ",
"0I0J0K0E0L0M0N0O0p0B0P0B0B0O0Q0R0S0T0U0V0W  ",
"0X0Y0Z0&1 0r101112130M101415161718191a1b1c  ",
"1d1e1f1g1h1i1j181k1l1m1n1o1p1q1o1o1r1s1t1u  ",
"1v1w1o1x1y1w1w1z1A1s1o1n1p1B1C1C1C1o1r1D1c  ",
"1E1F1G1D1H1I1w1z1J1K1o1n1C1L1M1M1N1p1n1O1P  ",
"1Q1R1D1b1H1w1S1z1s1r1n1B0t1T1U1V1W1k1C1H1X  ",
"1Y1t1O1H1I1S1Z1x1r1p1&0t2 202122231T241w1c  ",
"  25262728292a2b2c2d2e1u2f2g2h2h2i2j1u2b    ",
"                                            ",
"                                            "};

