/* XPM */
static char *wxbitbtn_log_xpm[]={
/* wxbitbtn_save */
"16 16 29 1",
"      c None",
"0     c #E8871E",
"1     c #EA973E",
"2     c #EA9132",
"3     c #EA8E2C",
"4     c #E88822",
"5     c #DE811E",
"6     c #C3721B",
"7     c #EEAA60",
"8     c #F9DCBD",
"9     c #F8D5B0",
"a     c #F6CB9C",
"b     c #F4C38E",
"c     c #F1B87B",
"d     c #EB9941",
"e     c #EEA75A",
"f     c #FBE4CD",
"g     c #EDA14F",
"h     c #FFFFFF",
"i     c #EDA557",
"j     c #FCEEDE",
"k     c #FEFAF6",
"l     c #FEF9F4",
"m     c #FBE9D7",
"n     c #FDF4E9",
"o     c #FFFCF9",
"p     c #FEF6EE",
"q     c #EC9B44",
"r     c #FFFEFD",
"  001234567     ",
"  0889abcded    ",
"  0ff89abghb1   ",
"  788889aihhb1  ",
"  7jcccccg2134  ",
"  7jklmf89abc4  ",
"  7jccccccccb4  ",
"  7jllnjmf89a3  ",
"  7jcccccccc92  ",
"  7joklpnjmf81  ",
"  7jccccccccfq  ",
"  7jhroklpnjmq  ",
"  7jccccccccjg  ",
"  7jhhhroklpni  ",
"  7777777777i7  ",
"                "};

